<svg version="1.1" id="Layer_1" xmlns="http://www.w3.org/2000/svg" xmlns:xlink="http://www.w3.org/1999/xlink" x="0px" y="0px"
	 width="100%" viewBox="0 0 1587 667" enable-background="new 0 0 1587 667" xml:space="preserve">
<path fill="#FFFFFF" opacity="1.000000" stroke="none" 
	d="
M1083.000000,668.000000 
	C722.039917,668.000000 361.579803,668.000000 1.059853,668.000000 
	C1.059853,445.731201 1.059853,223.462357 1.059853,1.096767 
	C529.876953,1.096767 1058.753906,1.096767 1587.815430,1.096767 
	C1587.815430,223.333206 1587.815430,445.666595 1587.815430,668.000000 
	C1419.795410,668.000000 1251.647705,668.000000 1083.000000,668.000000 
M491.787048,362.798035 
	C491.787048,362.798035 491.453125,362.513794 491.681519,361.834869 
	C492.236359,360.627533 492.838531,359.439453 493.338623,358.209839 
	C497.626465,347.667328 500.720154,336.862396 500.240631,325.327637 
	C500.096863,321.869110 498.319611,319.578857 494.711304,319.505737 
	C491.168427,319.433929 489.368896,321.526337 488.794586,324.983307 
	C487.978271,329.897217 487.734070,335.098541 485.862793,339.602631 
	C482.519592,347.649628 478.616180,355.570251 473.927032,362.890381 
	C472.412659,365.254425 467.490936,366.878296 464.515198,366.405090 
	C462.155396,366.029877 459.929810,362.174225 458.498535,359.420166 
	C457.327545,357.166992 457.008179,354.258057 457.014008,351.641418 
	C457.049469,335.673492 457.595581,319.701019 457.336121,303.740356 
	C457.185822,294.496368 456.600983,285.121246 454.798981,276.086914 
	C453.405487,269.100494 448.417542,264.156036 440.612793,263.237335 
	C433.418579,262.390533 428.736298,266.402649 425.534851,271.911987 
	C420.042084,281.364594 414.809082,291.005463 410.128754,300.880920 
	C406.415375,308.716156 403.691559,317.020386 400.528351,325.116394 
	C399.601837,323.865326 399.401245,322.794922 399.400269,321.724365 
	C399.380798,300.227936 399.384033,278.731537 399.383331,257.235107 
	C399.382812,241.340622 398.879486,240.702194 383.251251,237.300339 
	C381.630493,236.947556 379.961243,236.773132 378.304565,236.637650 
	C372.645966,236.174866 371.021881,237.470840 370.748535,243.085220 
	C370.051819,257.396423 369.526825,271.715942 368.830811,286.027130 
	C368.007233,302.961761 367.854340,319.925476 363.068604,336.478302 
	C360.094757,346.764252 356.184753,356.214813 348.066956,363.517914 
	C339.112396,371.573730 327.803162,368.867859 323.753723,357.584137 
	C322.919006,355.258148 322.072662,352.792969 321.986389,350.365143 
	C321.460297,335.560272 320.548706,320.731781 320.938416,305.942047 
	C321.340240,290.692596 321.965576,275.318512 328.243744,260.902557 
	C329.919861,257.053925 328.288116,253.422821 324.888977,251.362976 
	C314.338135,244.969330 302.867279,244.595993 291.164215,247.199280 
	C288.595306,247.770737 287.605408,249.344208 288.529083,252.459991 
	C289.929779,257.184937 291.214539,262.161743 291.242462,267.039001 
	C291.374054,290.027985 290.787689,313.022644 291.051544,336.008453 
	C291.145996,344.235535 291.930511,352.711456 294.090393,360.611694 
	C301.728882,388.550995 334.951843,398.090454 356.699188,379.021576 
	C360.010315,376.118286 363.532623,373.455811 366.254669,371.251007 
	C366.665375,373.529755 367.234222,377.487427 368.113464,381.374939 
	C369.400696,387.066376 372.728333,391.276917 378.734314,391.762451 
	C385.165375,392.282379 391.682068,392.030182 398.145905,391.753540 
	C402.297882,391.575836 404.361725,389.202972 405.107269,384.808441 
	C408.525848,364.658508 411.556915,344.375000 419.030579,325.190674 
	C421.546539,318.732300 424.905365,312.602234 427.878967,306.322113 
	C428.873718,313.030090 428.650665,319.193726 428.920013,325.335724 
	C429.487885,338.285492 429.792847,351.281677 431.219910,364.146301 
	C432.142975,372.467590 434.883301,380.828583 443.996674,384.065002 
	C456.576874,388.532623 468.599640,387.526520 478.977692,378.287170 
	C482.485413,375.164307 485.507202,371.495575 489.008911,367.804535 
	C488.706604,375.559631 491.996735,381.359009 498.504639,384.314972 
	C505.833649,387.643890 513.510254,390.718201 521.358704,392.288727 
	C538.783142,395.775513 556.183350,395.060730 572.794983,387.968018 
	C580.779114,384.558990 587.129150,379.386719 587.651245,369.704773 
	C588.115723,361.093445 583.045410,355.320923 577.158875,350.255981 
	C567.692871,342.111298 557.765869,334.498474 548.378967,326.267059 
	C541.901855,320.587250 535.290039,314.801239 530.037537,308.051727 
	C523.724426,299.939331 527.014954,285.029694 535.520935,277.798096 
	C543.218445,271.253815 554.469238,271.590668 562.696899,278.611725 
	C568.348206,283.434296 573.482483,283.108551 578.687378,277.560577 
	C583.901367,272.002930 586.283752,265.192627 587.425720,257.815613 
	C588.647949,249.920334 585.847839,245.524384 578.421570,242.938934 
	C568.497986,239.484024 558.650879,241.214111 548.823059,243.027924 
	C531.554504,246.215042 515.447815,252.023102 502.480530,264.539581 
	C489.789948,276.788910 486.865082,296.005463 496.847046,310.521271 
	C502.708130,319.044434 510.113892,326.686523 517.697205,333.794250 
	C525.568054,341.171570 534.737671,347.146454 542.849670,354.290558 
	C546.868469,357.829895 550.557373,362.217529 553.012024,366.940430 
	C556.135193,372.949493 553.581787,377.535583 547.340942,379.939606 
	C540.164673,382.703979 533.186951,382.088959 526.766663,378.112152 
	C521.123779,374.616913 515.583191,370.842987 510.495148,366.595947 
	C504.834473,361.870850 498.995056,360.267914 491.787048,362.798035 
M901.574219,381.027588 
	C902.875488,378.321686 904.176697,375.615784 905.477966,372.909882 
	C905.883972,373.044342 906.289978,373.178833 906.696045,373.313293 
	C906.211121,382.273438 905.585327,391.229218 905.308411,400.195740 
	C905.192566,403.946777 903.960144,406.383667 900.885559,408.832367 
	C864.276917,437.988037 843.837524,475.644409 841.580444,522.751404 
	C840.733093,540.435913 849.096375,553.986877 866.144409,558.688782 
	C877.066956,561.701477 888.672852,562.436707 900.032471,563.613220 
	C913.911133,565.050659 923.215271,558.369385 928.832825,545.962158 
	C934.059692,534.417725 936.548096,522.167847 936.912842,509.649567 
	C937.621399,485.336945 937.747864,461.006805 938.044556,436.683075 
	C938.129944,429.685852 938.119934,422.680603 937.875671,415.688721 
	C937.713379,411.042419 939.344604,409.355713 944.096130,410.218262 
	C946.787781,410.706909 949.713440,410.436432 952.452332,409.998901 
	C955.776978,409.467773 959.165466,407.569794 958.500549,403.993439 
	C958.027161,401.447723 955.439270,398.296295 953.026672,397.326111 
	C948.541565,395.522552 943.495544,395.114014 938.245300,394.034729 
	C938.315857,394.269867 938.053833,393.813660 938.061218,393.361847 
	C938.439575,370.042023 938.710754,346.719025 939.344910,323.405945 
	C939.478943,318.481354 940.745422,313.545105 941.876648,308.704590 
	C942.670166,305.308929 945.942932,301.083832 944.820435,299.001801 
	C943.379272,296.328491 938.759766,295.106262 935.294067,293.856232 
	C931.376648,292.443298 929.609009,290.108398 930.069519,285.991455 
	C930.624207,281.033295 930.926208,276.039886 931.662903,271.110321 
	C934.841492,249.841766 926.419678,236.449326 906.107300,229.950607 
	C896.971802,227.027817 888.086914,223.328781 879.031189,220.144638 
	C876.895447,219.393707 874.523132,218.931580 872.269470,218.966644 
	C862.451172,219.119461 854.837952,223.704910 848.748352,231.170395 
	C838.124207,244.195038 833.244873,259.679626 830.019836,275.757538 
	C825.676697,297.409271 824.820618,319.353058 824.971863,341.391113 
	C825.051514,352.998199 820.060242,363.039551 812.844910,371.779266 
	C807.878601,377.794830 800.874451,376.667358 796.957397,369.778687 
	C795.819275,367.777100 794.716736,365.621490 794.239624,363.398743 
	C789.914246,343.244385 789.323059,323.105774 795.399719,303.166901 
	C797.759644,295.423431 796.937439,292.549133 789.389343,289.606506 
	C785.449890,288.070709 783.998108,285.741119 784.071350,281.825470 
	C784.130493,278.662445 784.123047,275.485657 783.899658,272.332367 
	C783.348511,264.549957 783.239136,256.673126 781.870056,249.028046 
	C780.241455,239.933685 775.190918,232.641312 766.437561,228.863953 
	C759.156677,225.722000 751.516296,223.423615 744.163513,220.435699 
	C725.232727,212.742828 708.569153,217.676895 697.139832,234.698181 
	C686.973999,249.838028 682.161865,267.013184 680.170410,284.765717 
	C677.888672,305.105957 674.897827,325.226440 668.993530,344.835388 
	C665.781311,355.503571 662.528992,366.269073 654.667053,374.669647 
	C647.307495,382.533386 639.273010,381.339233 636.002991,371.166260 
	C633.289795,362.725494 631.148438,353.624542 631.240479,344.842133 
	C631.610413,309.532257 632.977661,274.233337 633.877502,238.927872 
	C633.968567,235.355057 635.130066,233.185654 638.869385,232.862411 
	C653.944946,231.559311 669.018005,230.225037 684.099731,228.997482 
	C685.354309,228.895370 686.729858,229.342758 687.940674,229.813858 
	C691.688354,231.271988 693.967590,230.087875 693.186462,226.268829 
	C692.622620,223.511719 690.767334,220.249863 688.481445,218.798248 
	C685.240967,216.740479 681.140503,215.402115 677.291016,215.057327 
	C665.694580,214.018631 654.029053,213.776672 642.415771,212.891815 
	C635.395203,212.356873 634.584900,211.062103 635.182495,204.084366 
	C636.461609,189.147919 637.635254,174.201111 639.094971,159.282333 
	C639.491028,155.233688 638.076599,152.692215 634.378479,151.718430 
	C626.212219,149.568100 617.965698,147.724472 609.768372,145.689362 
	C606.542236,144.888443 605.013611,146.368164 604.593262,149.334961 
	C603.987488,153.611053 603.230835,157.889862 603.008484,162.191788 
	C602.251587,176.831100 601.634460,191.478683 601.111755,206.128372 
	C600.954102,210.545975 599.167786,212.009323 594.643921,211.992310 
	C584.828064,211.955414 575.003113,212.485916 565.195801,213.034195 
	C561.650513,213.232376 557.834045,214.176865 557.337402,218.506409 
	C556.867249,222.604645 559.424744,225.337692 563.059631,227.002884 
	C563.962219,227.416397 564.894470,227.831818 565.857666,228.036133 
	C574.627930,229.896561 583.378601,231.872726 592.196655,233.475281 
	C597.267273,234.396790 599.550659,236.456604 599.158081,242.112717 
	C598.235352,255.405777 597.829529,268.741425 597.490906,282.066864 
	C596.882263,306.022369 594.876709,330.020111 598.982239,353.877136 
	C601.576782,368.954102 605.701050,383.459076 616.287415,395.137390 
	C629.990906,410.254242 650.200989,409.711060 662.203613,393.444641 
	C668.613037,384.758392 673.744690,375.129303 678.812012,366.959259 
	C681.339355,373.162476 683.847534,380.941040 687.579407,388.079834 
	C692.583923,397.653046 700.490173,403.565521 711.921814,403.646729 
	C714.205017,403.662964 716.573425,404.140289 718.747559,404.868042 
	C727.691772,407.861847 735.319763,405.795502 742.223022,399.574402 
	C752.076599,390.694550 757.447876,379.176117 761.940002,367.083069 
	C762.793274,364.786255 763.712036,362.513824 764.600525,360.230103 
	C768.283630,375.209290 774.155334,387.859558 789.638184,392.453491 
	C808.675049,398.101959 818.319519,384.715546 828.143555,371.364624 
	C828.607910,373.014679 828.860352,373.946930 829.133484,374.873138 
	C829.462219,375.988007 829.771912,377.110443 830.152649,378.207794 
	C834.778625,391.542786 843.092224,400.942688 857.554138,403.664459 
	C861.630554,404.431641 865.889282,404.515686 869.818298,405.717529 
	C876.607544,407.794312 882.732056,406.763580 887.137878,401.492310 
	C892.315002,395.298340 896.543579,388.311584 901.574219,381.027588 
M1264.432007,384.076202 
	C1265.286011,376.635986 1265.667603,369.104126 1267.089600,361.774109 
	C1270.345215,344.991699 1274.042358,328.293091 1277.743408,311.601166 
	C1278.255615,309.291534 1279.808350,307.212708 1280.879395,305.027039 
	C1281.395508,305.182098 1281.911743,305.337128 1282.427856,305.492157 
	C1282.617310,308.606384 1282.919312,311.718536 1282.977783,314.835205 
	C1283.318726,332.988007 1283.210327,351.159424 1284.023315,369.290039 
	C1284.732666,385.109589 1293.218872,392.307556 1309.002808,391.835876 
	C1318.914795,391.539673 1320.749023,389.958740 1322.341797,380.340149 
	C1322.368896,380.176147 1322.416870,380.015717 1322.450195,379.852600 
	C1327.739624,353.899475 1334.869751,328.521790 1346.084473,304.427124 
	C1347.407959,301.583618 1348.871094,298.805054 1350.269409,295.996399 
	C1350.956421,299.034515 1350.705566,301.689819 1350.663940,304.348389 
	C1350.427612,319.472839 1349.596558,334.625275 1350.232422,349.714874 
	C1350.787476,362.885651 1353.870361,375.714264 1361.444702,386.993774 
	C1371.890137,402.548889 1398.409058,407.714783 1412.249878,388.985718 
	C1421.855835,375.987030 1428.291992,361.851562 1431.954956,346.374908 
	C1433.506348,339.819244 1433.908447,332.956360 1434.347412,326.201569 
	C1434.438721,324.796448 1432.515625,322.165802 1431.291992,322.019897 
	C1429.333252,321.786377 1426.396606,322.554596 1425.295166,323.990265 
	C1423.567017,326.242584 1422.794556,329.341309 1422.021362,332.191193 
	C1419.891724,340.041748 1418.689697,348.229919 1415.750854,355.749054 
	C1413.205566,362.261108 1409.604980,368.766022 1404.999268,373.972290 
	C1398.127930,381.739807 1389.374268,379.378113 1385.837769,369.659729 
	C1385.046753,367.486053 1384.353516,365.235138 1383.973999,362.959961 
	C1380.685181,343.241760 1380.970337,323.432465 1383.723145,303.744934 
	C1384.903198,295.304962 1387.341797,286.877563 1390.458496,278.934875 
	C1392.240723,274.392700 1392.340088,270.912201 1389.526611,267.436890 
	C1383.026123,259.407288 1374.750244,253.981064 1364.449097,252.353439 
	C1353.165405,250.570541 1349.974976,252.070541 1345.861084,262.720612 
	C1335.991943,288.270599 1326.619507,314.012451 1317.032715,339.671600 
	C1316.209717,341.874420 1315.281616,344.037872 1314.402222,346.219574 
	C1313.139893,344.222412 1312.998413,342.498322 1312.997192,340.774139 
	C1312.982178,320.110260 1313.080322,299.445435 1312.871826,278.783661 
	C1312.845825,276.216675 1311.985596,272.745605 1310.205444,271.269806 
	C1303.203247,265.465088 1294.782837,264.968231 1286.084106,266.287506 
	C1279.264771,267.321716 1276.918213,272.845490 1274.052856,277.870422 
	C1273.152222,279.449982 1272.341431,281.122345 1271.778687,282.846619 
	C1267.147949,297.035004 1262.544312,311.232697 1258.029419,325.458313 
	C1256.827881,329.243927 1255.961182,333.135773 1254.940796,336.978851 
	C1254.226562,306.941864 1254.254761,277.112488 1254.154419,247.283539 
	C1254.148560,245.541321 1253.405762,242.478622 1252.491943,242.268738 
	C1244.114380,240.344635 1235.664673,238.592392 1227.145386,237.492905 
	C1223.441040,237.014816 1221.718750,239.717712 1221.960327,243.704422 
	C1222.373047,250.513153 1222.696899,257.350403 1222.553955,264.165070 
	C1222.214600,280.322540 1220.850464,296.493378 1221.282959,312.621735 
	C1221.665283,326.869568 1218.311157,340.152771 1213.742920,353.216980 
	C1211.479004,359.691315 1207.949829,365.926056 1203.963013,371.537384 
	C1200.053833,377.039398 1193.165527,376.938965 1189.464600,372.086731 
	C1187.888550,370.020203 1186.547852,367.540009 1185.895142,365.040222 
	C1180.529053,344.489380 1180.404175,323.891479 1186.301025,303.431702 
	C1188.639160,295.318756 1187.945923,292.523865 1180.207153,289.503235 
	C1176.416626,288.023682 1175.065552,285.817505 1175.101440,282.112610 
	C1175.125610,279.615509 1175.083374,277.110352 1174.909180,274.620117 
	C1174.307373,266.009216 1174.261719,257.296295 1172.816528,248.824875 
	C1171.297119,239.918457 1166.236938,232.679184 1157.707886,228.972565 
	C1149.065186,225.216522 1140.164062,222.003342 1131.231445,218.980072 
	C1121.545898,215.701920 1111.837402,216.023254 1102.678955,220.902054 
	C1091.789307,226.702911 1085.804199,236.736755 1081.126221,247.538727 
	C1071.365723,270.076660 1068.730469,294.083801 1068.016724,318.267792 
	C1067.481079,336.421600 1062.997925,353.439453 1055.587769,369.753082 
	C1053.370728,374.633911 1050.103027,379.356140 1046.293701,383.114105 
	C1041.570068,387.774078 1036.686279,386.327423 1034.053955,380.282745 
	C1032.801270,377.406250 1031.778442,374.372803 1031.103516,371.310852 
	C1026.952881,352.480530 1027.707520,333.460175 1030.659790,314.680481 
	C1032.842529,300.796417 1036.878906,287.191650 1040.337646,273.525269 
	C1042.171387,266.279694 1040.865845,262.741821 1033.944946,260.216156 
	C1029.916382,258.745911 1025.685059,257.559265 1021.445374,256.997833 
	C1013.531128,255.949768 1005.545227,255.439377 997.587219,254.727127 
	C993.024597,254.318787 990.091919,252.752350 990.755066,247.264587 
	C991.251770,243.154892 991.145813,238.935989 990.928162,234.785629 
	C990.660767,229.685654 988.155151,227.017181 983.309265,227.858551 
	C978.028564,228.775421 972.672119,230.437576 967.962891,232.933533 
	C965.819214,234.069702 964.251526,237.914093 964.011108,240.668655 
	C963.565979,245.768707 964.188110,250.977722 964.542664,256.129181 
	C966.688477,287.308563 966.584167,318.367371 959.771423,349.083771 
	C959.115479,352.041351 958.068909,355.378815 961.729675,356.873840 
	C965.325623,358.342438 968.510376,356.579834 970.093933,353.306580 
	C972.392212,348.555664 974.959351,343.671112 975.884460,338.566772 
	C979.264282,319.918274 982.125610,301.172211 984.936707,282.426117 
	C985.976746,275.490387 987.199768,274.141602 994.218750,274.597961 
	C1001.691650,275.083832 1002.687622,276.006836 1002.136169,283.244751 
	C1000.351868,306.663879 998.015259,330.066559 1002.010559,353.499695 
	C1004.261292,366.700745 1007.387451,379.556244 1015.553101,390.585327 
	C1027.395874,406.580933 1047.911133,407.070435 1059.998657,391.280029 
	C1064.497681,385.402954 1067.924561,378.705231 1071.557617,372.838196 
	C1073.774414,377.700409 1075.890381,383.289337 1078.770508,388.451935 
	C1083.967041,397.766479 1091.653442,403.501068 1102.837280,403.653137 
	C1105.284790,403.686401 1107.814575,404.200867 1110.146973,404.974609 
	C1118.533325,407.756744 1125.854736,405.908508 1132.411377,400.289856 
	C1142.755005,391.426147 1148.321533,379.597504 1152.916870,367.168304 
	C1153.776001,364.844330 1154.699829,362.544342 1156.001343,359.179504 
	C1161.375488,380.298065 1169.437256,390.536804 1182.427734,393.023529 
	C1202.620850,396.889099 1211.264038,382.170837 1220.674438,368.660156 
	C1221.782959,376.363495 1222.586548,383.924225 1224.109131,391.337311 
	C1224.571045,393.586273 1226.603638,396.470795 1228.628784,397.278137 
	C1238.473511,401.202789 1248.767578,403.384827 1259.327393,400.829681 
	C1261.205444,400.375214 1263.284546,397.539459 1263.808472,395.438568 
	C1264.636230,392.119659 1264.226929,388.492249 1264.432007,384.076202 
M212.942535,509.474182 
	C223.677658,511.287048 231.765411,506.831879 238.044586,498.563873 
	C248.386246,484.946686 251.348083,468.787140 251.834686,452.441620 
	C252.717041,422.801392 252.434174,393.126404 252.635147,363.465942 
	C252.647141,361.694519 252.636688,359.923004 252.636688,359.425446 
	C258.889740,358.059021 264.501434,357.481873 269.589569,355.535797 
	C274.541840,353.641663 274.655457,348.903778 269.773224,346.717041 
	C264.386780,344.304535 258.427277,343.171661 252.631729,341.456024 
	C252.631729,318.259979 252.304657,293.787384 252.876038,269.335724 
	C253.008575,263.664001 255.866501,257.923615 258.117554,252.482559 
	C259.508179,249.121292 258.672516,246.940125 255.775070,246.174622 
	C247.144958,243.894516 238.470901,241.363770 229.651123,240.354599 
	C222.976013,239.590820 219.863434,243.731354 219.950394,250.726730 
	C219.993759,254.215073 220.634933,257.698212 220.642151,261.184418 
	C220.703217,290.683014 220.733749,320.182129 220.561401,349.679840 
	C220.550018,351.625061 219.307663,354.217590 217.779694,355.400604 
	C197.166718,371.360199 182.217224,391.734467 171.356628,415.160736 
	C162.813202,433.588959 157.236206,452.864868 158.109451,473.470856 
	C158.808197,489.958862 167.500229,501.219391 183.468353,505.055542 
	C192.799469,507.297211 202.513840,507.943512 212.942535,509.474182 
M242.517563,210.550247 
	C247.539261,209.535553 252.746765,209.049683 257.533905,207.367493 
	C263.069366,205.422379 263.675751,202.219818 260.437958,197.379593 
	C259.147034,195.449783 257.768677,193.563354 256.650238,191.535751 
	C247.681183,175.275940 233.418442,170.358627 216.248062,177.665680 
	C205.207748,182.363998 205.195480,182.404556 211.976501,191.823105 
	C212.559296,192.632584 213.122772,193.456924 213.729385,194.248169 
	C220.815552,203.491241 229.651764,209.724289 242.517563,210.550247 
M326.900146,213.412338 
	C329.262482,212.676147 331.759125,212.216476 333.959717,211.147339 
	C338.833252,208.779480 339.340118,206.231064 336.342133,201.627304 
	C334.533020,198.849243 332.731232,196.056641 331.113403,193.165802 
	C327.541656,186.783737 322.279236,182.595169 315.443268,180.045441 
	C306.084564,176.554825 297.525574,178.919296 289.058563,182.974579 
	C281.713989,186.492279 281.466858,187.276291 286.143585,193.657928 
	C287.420868,195.400848 288.612030,197.211990 289.964630,198.893799 
	C299.279419,210.476044 310.756714,216.808823 326.900146,213.412338 
z"/>
<path fill="#020202" opacity="1.000000" stroke="none" 
	d="
M901.378845,381.348114 
	C896.543579,388.311584 892.315002,395.298340 887.137878,401.492310 
	C882.732056,406.763580 876.607544,407.794312 869.818298,405.717529 
	C865.889282,404.515686 861.630554,404.431641 857.554138,403.664459 
	C843.092224,400.942688 834.778625,391.542786 830.152649,378.207794 
	C829.771912,377.110443 829.462219,375.988007 829.133484,374.873138 
	C828.860352,373.946930 828.607910,373.014679 828.143555,371.364624 
	C818.319519,384.715546 808.675049,398.101959 789.638184,392.453491 
	C774.155334,387.859558 768.283630,375.209290 764.600525,360.230103 
	C763.712036,362.513824 762.793274,364.786255 761.940002,367.083069 
	C757.447876,379.176117 752.076599,390.694550 742.223022,399.574402 
	C735.319763,405.795502 727.691772,407.861847 718.747559,404.868042 
	C716.573425,404.140289 714.205017,403.662964 711.921814,403.646729 
	C700.490173,403.565521 692.583923,397.653046 687.579407,388.079834 
	C683.847534,380.941040 681.339355,373.162476 678.812012,366.959259 
	C673.744690,375.129303 668.613037,384.758392 662.203613,393.444641 
	C650.200989,409.711060 629.990906,410.254242 616.287415,395.137390 
	C605.701050,383.459076 601.576782,368.954102 598.982239,353.877136 
	C594.876709,330.020111 596.882263,306.022369 597.490906,282.066864 
	C597.829529,268.741425 598.235352,255.405777 599.158081,242.112717 
	C599.550659,236.456604 597.267273,234.396790 592.196655,233.475281 
	C583.378601,231.872726 574.627930,229.896561 565.857666,228.036133 
	C564.894470,227.831818 563.962219,227.416397 563.059631,227.002884 
	C559.424744,225.337692 556.867249,222.604645 557.337402,218.506409 
	C557.834045,214.176865 561.650513,213.232376 565.195801,213.034195 
	C575.003113,212.485916 584.828064,211.955414 594.643921,211.992310 
	C599.167786,212.009323 600.954102,210.545975 601.111755,206.128372 
	C601.634460,191.478683 602.251587,176.831100 603.008484,162.191788 
	C603.230835,157.889862 603.987488,153.611053 604.593262,149.334961 
	C605.013611,146.368164 606.542236,144.888443 609.768372,145.689362 
	C617.965698,147.724472 626.212219,149.568100 634.378479,151.718430 
	C638.076599,152.692215 639.491028,155.233688 639.094971,159.282333 
	C637.635254,174.201111 636.461609,189.147919 635.182495,204.084366 
	C634.584900,211.062103 635.395203,212.356873 642.415771,212.891815 
	C654.029053,213.776672 665.694580,214.018631 677.291016,215.057327 
	C681.140503,215.402115 685.240967,216.740479 688.481445,218.798248 
	C690.767334,220.249863 692.622620,223.511719 693.186462,226.268829 
	C693.967590,230.087875 691.688354,231.271988 687.940674,229.813858 
	C686.729858,229.342758 685.354309,228.895370 684.099731,228.997482 
	C669.018005,230.225037 653.944946,231.559311 638.869385,232.862411 
	C635.130066,233.185654 633.968567,235.355057 633.877502,238.927872 
	C632.977661,274.233337 631.610413,309.532257 631.240479,344.842133 
	C631.148438,353.624542 633.289795,362.725494 636.002991,371.166260 
	C639.273010,381.339233 647.307495,382.533386 654.667053,374.669647 
	C662.528992,366.269073 665.781311,355.503571 668.993530,344.835388 
	C674.897827,325.226440 677.888672,305.105957 680.170410,284.765717 
	C682.161865,267.013184 686.973999,249.838028 697.139832,234.698181 
	C708.569153,217.676895 725.232727,212.742828 744.163513,220.435699 
	C751.516296,223.423615 759.156677,225.722000 766.437561,228.863953 
	C775.190918,232.641312 780.241455,239.933685 781.870056,249.028046 
	C783.239136,256.673126 783.348511,264.549957 783.899658,272.332367 
	C784.123047,275.485657 784.130493,278.662445 784.071350,281.825470 
	C783.998108,285.741119 785.449890,288.070709 789.389343,289.606506 
	C796.937439,292.549133 797.759644,295.423431 795.399719,303.166901 
	C789.323059,323.105774 789.914246,343.244385 794.239624,363.398743 
	C794.716736,365.621490 795.819275,367.777100 796.957397,369.778687 
	C800.874451,376.667358 807.878601,377.794830 812.844910,371.779266 
	C820.060242,363.039551 825.051514,352.998199 824.971863,341.391113 
	C824.820618,319.353058 825.676697,297.409271 830.019836,275.757538 
	C833.244873,259.679626 838.124207,244.195038 848.748352,231.170395 
	C854.837952,223.704910 862.451172,219.119461 872.269470,218.966644 
	C874.523132,218.931580 876.895447,219.393707 879.031189,220.144638 
	C888.086914,223.328781 896.971802,227.027817 906.107300,229.950607 
	C926.419678,236.449326 934.841492,249.841766 931.662903,271.110321 
	C930.926208,276.039886 930.624207,281.033295 930.069519,285.991455 
	C929.609009,290.108398 931.376648,292.443298 935.294067,293.856232 
	C938.759766,295.106262 943.379272,296.328491 944.820435,299.001801 
	C945.942932,301.083832 942.670166,305.308929 941.876648,308.704590 
	C940.745422,313.545105 939.478943,318.481354 939.344910,323.405945 
	C938.710754,346.719025 938.439575,370.042023 938.061218,393.361847 
	C938.053833,393.813660 938.315857,394.269867 938.245300,394.034729 
	C943.495544,395.114014 948.541565,395.522552 953.026672,397.326111 
	C955.439270,398.296295 958.027161,401.447723 958.500549,403.993439 
	C959.165466,407.569794 955.776978,409.467773 952.452332,409.998901 
	C949.713440,410.436432 946.787781,410.706909 944.096130,410.218262 
	C939.344604,409.355713 937.713379,411.042419 937.875671,415.688721 
	C938.119934,422.680603 938.129944,429.685852 938.044556,436.683075 
	C937.747864,461.006805 937.621399,485.336945 936.912842,509.649567 
	C936.548096,522.167847 934.059692,534.417725 928.832825,545.962158 
	C923.215271,558.369385 913.911133,565.050659 900.032471,563.613220 
	C888.672852,562.436707 877.066956,561.701477 866.144409,558.688782 
	C849.096375,553.986877 840.733093,540.435913 841.580444,522.751404 
	C843.837524,475.644409 864.276917,437.988037 900.885559,408.832367 
	C903.960144,406.383667 905.192566,403.946777 905.308411,400.195740 
	C905.585327,391.229218 906.211121,382.273438 906.696045,373.313293 
	C906.289978,373.178833 905.883972,373.044342 905.477966,372.909882 
	C904.176697,375.615784 902.875488,378.321686 901.378845,381.348114 
M753.000061,321.491699 
	C753.693176,313.867676 753.982300,306.175079 755.259033,298.650085 
	C755.849121,295.171997 758.387817,292.031128 760.000000,288.716492 
	C760.622131,287.437500 761.735352,286.023743 761.581848,284.802399 
	C760.653503,277.414886 760.349731,269.768494 758.105225,262.763550 
	C753.092529,247.118942 735.740356,243.858505 725.184570,256.506714 
	C721.002991,261.517151 717.539062,267.487244 715.151855,273.571106 
	C705.543030,298.059235 704.073792,323.724640 705.560364,349.664490 
	C706.169861,360.300232 707.329834,370.880585 711.905396,380.754425 
	C713.701538,384.630341 716.126282,387.827698 720.722595,387.692108 
	C727.074585,387.504761 733.119751,385.713074 736.859924,380.200439 
	C739.998657,375.574310 743.505859,370.665833 744.747742,365.387756 
	C748.085144,351.202942 750.296875,336.753265 753.000061,321.491699 
M892.791931,354.217865 
	C898.132080,339.018127 900.293396,323.283020 901.066589,307.257629 
	C901.279358,302.847473 901.908447,298.180603 903.612610,294.169434 
	C909.471252,280.379303 907.742310,267.076904 901.367310,254.273178 
	C897.165710,245.834595 888.611572,243.497299 880.073853,247.640121 
	C877.290466,248.990707 874.671936,250.967087 872.453430,253.142166 
	C865.770447,259.694427 861.920471,267.978180 858.926941,276.692383 
	C850.544250,301.094513 849.649719,326.292786 851.737854,351.642181 
	C852.422852,359.958344 854.422791,368.334320 857.061890,376.270416 
	C859.344666,383.135254 864.339600,384.987579 871.087891,382.187988 
	C874.921082,380.597748 879.041931,378.078278 881.354492,374.794922 
	C885.699768,368.625519 888.827637,361.598755 892.791931,354.217865 
M900.646240,423.010529 
	C896.450073,427.725555 891.783142,432.105347 888.143372,437.216583 
	C875.752258,454.617340 867.663513,474.013123 863.085083,494.828552 
	C860.388184,507.089966 858.881653,519.478455 863.024536,531.776184 
	C865.080505,537.878967 868.412903,542.968201 875.451538,543.950378 
	C883.081726,545.015198 888.528442,541.495605 892.653076,535.321045 
	C899.983582,524.347229 903.259033,511.964447 903.915161,499.099976 
	C904.881348,480.159027 904.928345,461.169830 905.277527,442.199524 
	C905.411316,434.929871 905.299316,427.655670 905.299316,419.503784 
	C903.499939,420.830048 902.353271,421.675232 900.646240,423.010529 
z"/>
<path fill="#020202" opacity="1.000000" stroke="none" 
	d="
M1264.386475,384.535797 
	C1264.226929,388.492249 1264.636230,392.119659 1263.808472,395.438568 
	C1263.284546,397.539459 1261.205444,400.375214 1259.327393,400.829681 
	C1248.767578,403.384827 1238.473511,401.202789 1228.628784,397.278137 
	C1226.603638,396.470795 1224.571045,393.586273 1224.109131,391.337311 
	C1222.586548,383.924225 1221.782959,376.363495 1220.674438,368.660156 
	C1211.264038,382.170837 1202.620850,396.889099 1182.427734,393.023529 
	C1169.437256,390.536804 1161.375488,380.298065 1156.001343,359.179504 
	C1154.699829,362.544342 1153.776001,364.844330 1152.916870,367.168304 
	C1148.321533,379.597504 1142.755005,391.426147 1132.411377,400.289856 
	C1125.854736,405.908508 1118.533325,407.756744 1110.146973,404.974609 
	C1107.814575,404.200867 1105.284790,403.686401 1102.837280,403.653137 
	C1091.653442,403.501068 1083.967041,397.766479 1078.770508,388.451935 
	C1075.890381,383.289337 1073.774414,377.700409 1071.557617,372.838196 
	C1067.924561,378.705231 1064.497681,385.402954 1059.998657,391.280029 
	C1047.911133,407.070435 1027.395874,406.580933 1015.553101,390.585327 
	C1007.387451,379.556244 1004.261292,366.700745 1002.010559,353.499695 
	C998.015259,330.066559 1000.351868,306.663879 1002.136169,283.244751 
	C1002.687622,276.006836 1001.691650,275.083832 994.218750,274.597961 
	C987.199768,274.141602 985.976746,275.490387 984.936707,282.426117 
	C982.125610,301.172211 979.264282,319.918274 975.884460,338.566772 
	C974.959351,343.671112 972.392212,348.555664 970.093933,353.306580 
	C968.510376,356.579834 965.325623,358.342438 961.729675,356.873840 
	C958.068909,355.378815 959.115479,352.041351 959.771423,349.083771 
	C966.584167,318.367371 966.688477,287.308563 964.542664,256.129181 
	C964.188110,250.977722 963.565979,245.768707 964.011108,240.668655 
	C964.251526,237.914093 965.819214,234.069702 967.962891,232.933533 
	C972.672119,230.437576 978.028564,228.775421 983.309265,227.858551 
	C988.155151,227.017181 990.660767,229.685654 990.928162,234.785629 
	C991.145813,238.935989 991.251770,243.154892 990.755066,247.264587 
	C990.091919,252.752350 993.024597,254.318787 997.587219,254.727127 
	C1005.545227,255.439377 1013.531128,255.949768 1021.445374,256.997833 
	C1025.685059,257.559265 1029.916382,258.745911 1033.944946,260.216156 
	C1040.865845,262.741821 1042.171387,266.279694 1040.337646,273.525269 
	C1036.878906,287.191650 1032.842529,300.796417 1030.659790,314.680481 
	C1027.707520,333.460175 1026.952881,352.480530 1031.103516,371.310852 
	C1031.778442,374.372803 1032.801270,377.406250 1034.053955,380.282745 
	C1036.686279,386.327423 1041.570068,387.774078 1046.293701,383.114105 
	C1050.103027,379.356140 1053.370728,374.633911 1055.587769,369.753082 
	C1062.997925,353.439453 1067.481079,336.421600 1068.016724,318.267792 
	C1068.730469,294.083801 1071.365723,270.076660 1081.126221,247.538727 
	C1085.804199,236.736755 1091.789307,226.702911 1102.678955,220.902054 
	C1111.837402,216.023254 1121.545898,215.701920 1131.231445,218.980072 
	C1140.164062,222.003342 1149.065186,225.216522 1157.707886,228.972565 
	C1166.236938,232.679184 1171.297119,239.918457 1172.816528,248.824875 
	C1174.261719,257.296295 1174.307373,266.009216 1174.909180,274.620117 
	C1175.083374,277.110352 1175.125610,279.615509 1175.101440,282.112610 
	C1175.065552,285.817505 1176.416626,288.023682 1180.207153,289.503235 
	C1187.945923,292.523865 1188.639160,295.318756 1186.301025,303.431702 
	C1180.404175,323.891479 1180.529053,344.489380 1185.895142,365.040222 
	C1186.547852,367.540009 1187.888550,370.020203 1189.464600,372.086731 
	C1193.165527,376.938965 1200.053833,377.039398 1203.963013,371.537384 
	C1207.949829,365.926056 1211.479004,359.691315 1213.742920,353.216980 
	C1218.311157,340.152771 1221.665283,326.869568 1221.282959,312.621735 
	C1220.850464,296.493378 1222.214600,280.322540 1222.553955,264.165070 
	C1222.696899,257.350403 1222.373047,250.513153 1221.960327,243.704422 
	C1221.718750,239.717712 1223.441040,237.014816 1227.145386,237.492905 
	C1235.664673,238.592392 1244.114380,240.344635 1252.491943,242.268738 
	C1253.405762,242.478622 1254.148560,245.541321 1254.154419,247.283539 
	C1254.254761,277.112488 1254.226562,306.941864 1254.940796,336.978851 
	C1255.961182,333.135773 1256.827881,329.243927 1258.029419,325.458313 
	C1262.544312,311.232697 1267.147949,297.035004 1271.778687,282.846619 
	C1272.341431,281.122345 1273.152222,279.449982 1274.052856,277.870422 
	C1276.918213,272.845490 1279.264771,267.321716 1286.084106,266.287506 
	C1294.782837,264.968231 1303.203247,265.465088 1310.205444,271.269806 
	C1311.985596,272.745605 1312.845825,276.216675 1312.871826,278.783661 
	C1313.080322,299.445435 1312.982178,320.110260 1312.997192,340.774139 
	C1312.998413,342.498322 1313.139893,344.222412 1314.402222,346.219574 
	C1315.281616,344.037872 1316.209717,341.874420 1317.032715,339.671600 
	C1326.619507,314.012451 1335.991943,288.270599 1345.861084,262.720612 
	C1349.974976,252.070541 1353.165405,250.570541 1364.449097,252.353439 
	C1374.750244,253.981064 1383.026123,259.407288 1389.526611,267.436890 
	C1392.340088,270.912201 1392.240723,274.392700 1390.458496,278.934875 
	C1387.341797,286.877563 1384.903198,295.304962 1383.723145,303.744934 
	C1380.970337,323.432465 1380.685181,343.241760 1383.973999,362.959961 
	C1384.353516,365.235138 1385.046753,367.486053 1385.837769,369.659729 
	C1389.374268,379.378113 1398.127930,381.739807 1404.999268,373.972290 
	C1409.604980,368.766022 1413.205566,362.261108 1415.750854,355.749054 
	C1418.689697,348.229919 1419.891724,340.041748 1422.021362,332.191193 
	C1422.794556,329.341309 1423.567017,326.242584 1425.295166,323.990265 
	C1426.396606,322.554596 1429.333252,321.786377 1431.291992,322.019897 
	C1432.515625,322.165802 1434.438721,324.796448 1434.347412,326.201569 
	C1433.908447,332.956360 1433.506348,339.819244 1431.954956,346.374908 
	C1428.291992,361.851562 1421.855835,375.987030 1412.249878,388.985718 
	C1398.409058,407.714783 1371.890137,402.548889 1361.444702,386.993774 
	C1353.870361,375.714264 1350.787476,362.885651 1350.232422,349.714874 
	C1349.596558,334.625275 1350.427612,319.472839 1350.663940,304.348389 
	C1350.705566,301.689819 1350.956421,299.034515 1350.269409,295.996399 
	C1348.871094,298.805054 1347.407959,301.583618 1346.084473,304.427124 
	C1334.869751,328.521790 1327.739624,353.899475 1322.450195,379.852600 
	C1322.416870,380.015717 1322.368896,380.176147 1322.341797,380.340149 
	C1320.749023,389.958740 1318.914795,391.539673 1309.002808,391.835876 
	C1293.218872,392.307556 1284.732666,385.109589 1284.023315,369.290039 
	C1283.210327,351.159424 1283.318726,332.988007 1282.977783,314.835205 
	C1282.919312,311.718536 1282.617310,308.606384 1282.427856,305.492157 
	C1281.911743,305.337128 1281.395508,305.182098 1280.879395,305.027039 
	C1279.808350,307.212708 1278.255615,309.291534 1277.743408,311.601166 
	C1274.042358,328.293091 1270.345215,344.991699 1267.089600,361.774109 
	C1265.667603,369.104126 1265.286011,376.635986 1264.386475,384.535797 
M1142.038940,338.523407 
	C1143.369263,325.444458 1144.433960,312.329437 1146.200684,299.309692 
	C1146.694946,295.667511 1149.275024,292.313477 1150.865845,288.812500 
	C1151.515503,287.382568 1152.721069,285.843903 1152.572998,284.473663 
	C1151.825317,277.555389 1151.311523,270.521118 1149.569702,263.825653 
	C1147.708130,256.669525 1143.594971,250.579849 1135.477417,249.314301 
	C1127.503540,248.071121 1120.188843,250.373856 1115.650757,257.126892 
	C1111.157349,263.813263 1106.781250,270.960571 1104.291138,278.542084 
	C1095.531250,305.214325 1094.205200,332.731903 1097.696411,360.434998 
	C1098.597778,367.588287 1100.908447,374.663574 1103.363770,381.489716 
	C1105.306030,386.889862 1108.717773,388.049225 1114.546143,387.392761 
	C1121.751709,386.581207 1126.777222,382.735229 1130.514526,376.766266 
	C1137.675293,365.329254 1139.767090,352.355103 1142.038940,338.523407 
z"/>
<path fill="#030303" opacity="1.000000" stroke="none" 
	d="
M492.100830,363.104370 
	C498.995056,360.267914 504.834473,361.870850 510.495148,366.595947 
	C515.583191,370.842987 521.123779,374.616913 526.766663,378.112152 
	C533.186951,382.088959 540.164673,382.703979 547.340942,379.939606 
	C553.581787,377.535583 556.135193,372.949493 553.012024,366.940430 
	C550.557373,362.217529 546.868469,357.829895 542.849670,354.290558 
	C534.737671,347.146454 525.568054,341.171570 517.697205,333.794250 
	C510.113892,326.686523 502.708130,319.044434 496.847046,310.521271 
	C486.865082,296.005463 489.789948,276.788910 502.480530,264.539581 
	C515.447815,252.023102 531.554504,246.215042 548.823059,243.027924 
	C558.650879,241.214111 568.497986,239.484024 578.421570,242.938934 
	C585.847839,245.524384 588.647949,249.920334 587.425720,257.815613 
	C586.283752,265.192627 583.901367,272.002930 578.687378,277.560577 
	C573.482483,283.108551 568.348206,283.434296 562.696899,278.611725 
	C554.469238,271.590668 543.218445,271.253815 535.520935,277.798096 
	C527.014954,285.029694 523.724426,299.939331 530.037537,308.051727 
	C535.290039,314.801239 541.901855,320.587250 548.378967,326.267059 
	C557.765869,334.498474 567.692871,342.111298 577.158875,350.255981 
	C583.045410,355.320923 588.115723,361.093445 587.651245,369.704773 
	C587.129150,379.386719 580.779114,384.558990 572.794983,387.968018 
	C556.183350,395.060730 538.783142,395.775513 521.358704,392.288727 
	C513.510254,390.718201 505.833649,387.643890 498.504639,384.314972 
	C491.996735,381.359009 488.706604,375.559631 489.008911,367.804535 
	C485.507202,371.495575 482.485413,375.164307 478.977692,378.287170 
	C468.599640,387.526520 456.576874,388.532623 443.996674,384.065002 
	C434.883301,380.828583 432.142975,372.467590 431.219910,364.146301 
	C429.792847,351.281677 429.487885,338.285492 428.920013,325.335724 
	C428.650665,319.193726 428.873718,313.030090 427.878967,306.322113 
	C424.905365,312.602234 421.546539,318.732300 419.030579,325.190674 
	C411.556915,344.375000 408.525848,364.658508 405.107269,384.808441 
	C404.361725,389.202972 402.297882,391.575836 398.145905,391.753540 
	C391.682068,392.030182 385.165375,392.282379 378.734314,391.762451 
	C372.728333,391.276917 369.400696,387.066376 368.113464,381.374939 
	C367.234222,377.487427 366.665375,373.529755 366.254669,371.251007 
	C363.532623,373.455811 360.010315,376.118286 356.699188,379.021576 
	C334.951843,398.090454 301.728882,388.550995 294.090393,360.611694 
	C291.930511,352.711456 291.145996,344.235535 291.051544,336.008453 
	C290.787689,313.022644 291.374054,290.027985 291.242462,267.039001 
	C291.214539,262.161743 289.929779,257.184937 288.529083,252.459991 
	C287.605408,249.344208 288.595306,247.770737 291.164215,247.199280 
	C302.867279,244.595993 314.338135,244.969330 324.888977,251.362976 
	C328.288116,253.422821 329.919861,257.053925 328.243744,260.902557 
	C321.965576,275.318512 321.340240,290.692596 320.938416,305.942047 
	C320.548706,320.731781 321.460297,335.560272 321.986389,350.365143 
	C322.072662,352.792969 322.919006,355.258148 323.753723,357.584137 
	C327.803162,368.867859 339.112396,371.573730 348.066956,363.517914 
	C356.184753,356.214813 360.094757,346.764252 363.068604,336.478302 
	C367.854340,319.925476 368.007233,302.961761 368.830811,286.027130 
	C369.526825,271.715942 370.051819,257.396423 370.748535,243.085220 
	C371.021881,237.470840 372.645966,236.174866 378.304565,236.637650 
	C379.961243,236.773132 381.630493,236.947556 383.251251,237.300339 
	C398.879486,240.702194 399.382812,241.340622 399.383331,257.235107 
	C399.384033,278.731537 399.380798,300.227936 399.400269,321.724365 
	C399.401245,322.794922 399.601837,323.865326 400.528351,325.116394 
	C403.691559,317.020386 406.415375,308.716156 410.128754,300.880920 
	C414.809082,291.005463 420.042084,281.364594 425.534851,271.911987 
	C428.736298,266.402649 433.418579,262.390533 440.612793,263.237335 
	C448.417542,264.156036 453.405487,269.100494 454.798981,276.086914 
	C456.600983,285.121246 457.185822,294.496368 457.336121,303.740356 
	C457.595581,319.701019 457.049469,335.673492 457.014008,351.641418 
	C457.008179,354.258057 457.327545,357.166992 458.498535,359.420166 
	C459.929810,362.174225 462.155396,366.029877 464.515198,366.405090 
	C467.490936,366.878296 472.412659,365.254425 473.927032,362.890381 
	C478.616180,355.570251 482.519592,347.649628 485.862793,339.602631 
	C487.734070,335.098541 487.978271,329.897217 488.794586,324.983307 
	C489.368896,321.526337 491.168427,319.433929 494.711304,319.505737 
	C498.319611,319.578857 500.096863,321.869110 500.240631,325.327637 
	C500.720154,336.862396 497.626465,347.667328 493.338623,358.209839 
	C492.838531,359.439453 492.236359,360.627533 491.401306,362.400269 
	C491.170074,363.223022 491.219025,363.480438 491.267975,363.737823 
	C491.545593,363.526672 491.823212,363.315521 492.100830,363.104370 
z"/>
<path fill="#030303" opacity="1.000000" stroke="none" 
	d="
M212.499176,509.390869 
	C202.513840,507.943512 192.799469,507.297211 183.468353,505.055542 
	C167.500229,501.219391 158.808197,489.958862 158.109451,473.470856 
	C157.236206,452.864868 162.813202,433.588959 171.356628,415.160736 
	C182.217224,391.734467 197.166718,371.360199 217.779694,355.400604 
	C219.307663,354.217590 220.550018,351.625061 220.561401,349.679840 
	C220.733749,320.182129 220.703217,290.683014 220.642151,261.184418 
	C220.634933,257.698212 219.993759,254.215073 219.950394,250.726730 
	C219.863434,243.731354 222.976013,239.590820 229.651123,240.354599 
	C238.470901,241.363770 247.144958,243.894516 255.775070,246.174622 
	C258.672516,246.940125 259.508179,249.121292 258.117554,252.482559 
	C255.866501,257.923615 253.008575,263.664001 252.876038,269.335724 
	C252.304657,293.787384 252.631729,318.259979 252.631729,341.456024 
	C258.427277,343.171661 264.386780,344.304535 269.773224,346.717041 
	C274.655457,348.903778 274.541840,353.641663 269.589569,355.535797 
	C264.501434,357.481873 258.889740,358.059021 252.636688,359.425446 
	C252.636688,359.923004 252.647141,361.694519 252.635147,363.465942 
	C252.434174,393.126404 252.717041,422.801392 251.834686,452.441620 
	C251.348083,468.787140 248.386246,484.946686 238.044586,498.563873 
	C231.765411,506.831879 223.677658,511.287048 212.499176,509.390869 
M219.973373,423.444489 
	C219.973373,404.933044 219.973373,386.421600 219.973373,367.084198 
	C218.493652,368.386169 217.745346,368.989685 217.058853,369.656738 
	C204.687469,381.678558 196.159241,396.316071 189.284683,411.875977 
	C181.642883,429.172424 176.377609,447.223724 177.200226,466.378723 
	C177.427460,471.669739 178.786743,477.393433 181.299362,482.007721 
	C187.021210,492.515594 199.635773,493.016266 206.708511,483.358582 
	C209.313293,479.801849 211.447449,475.720398 212.955170,471.572510 
	C218.482574,456.366028 219.265427,440.387207 219.973373,423.444489 
z"/>
<path fill="#040404" opacity="1.000000" stroke="none" 
	d="
M242.095505,210.507782 
	C229.651764,209.724289 220.815552,203.491241 213.729385,194.248169 
	C213.122772,193.456924 212.559296,192.632584 211.976501,191.823105 
	C205.195480,182.404556 205.207748,182.363998 216.248062,177.665680 
	C233.418442,170.358627 247.681183,175.275940 256.650238,191.535751 
	C257.768677,193.563354 259.147034,195.449783 260.437958,197.379593 
	C263.675751,202.219818 263.069366,205.422379 257.533905,207.367493 
	C252.746765,209.049683 247.539261,209.535553 242.095505,210.507782 
z"/>
<path fill="#040404" opacity="1.000000" stroke="none" 
	d="
M326.500183,213.528168 
	C310.756714,216.808823 299.279419,210.476044 289.964630,198.893799 
	C288.612030,197.211990 287.420868,195.400848 286.143585,193.657928 
	C281.466858,187.276291 281.713989,186.492279 289.058563,182.974579 
	C297.525574,178.919296 306.084564,176.554825 315.443268,180.045441 
	C322.279236,182.595169 327.541656,186.783737 331.113403,193.165802 
	C332.731232,196.056641 334.533020,198.849243 336.342133,201.627304 
	C339.340118,206.231064 338.833252,208.779480 333.959717,211.147339 
	C331.759125,212.216476 329.262482,212.676147 326.500183,213.528168 
z"/>
<path fill="#FDFDFD" opacity="1.000000" stroke="none" 
	d="
M752.977783,321.950226 
	C750.296875,336.753265 748.085144,351.202942 744.747742,365.387756 
	C743.505859,370.665833 739.998657,375.574310 736.859924,380.200439 
	C733.119751,385.713074 727.074585,387.504761 720.722595,387.692108 
	C716.126282,387.827698 713.701538,384.630341 711.905396,380.754425 
	C707.329834,370.880585 706.169861,360.300232 705.560364,349.664490 
	C704.073792,323.724640 705.543030,298.059235 715.151855,273.571106 
	C717.539062,267.487244 721.002991,261.517151 725.184570,256.506714 
	C735.740356,243.858505 753.092529,247.118942 758.105225,262.763550 
	C760.349731,269.768494 760.653503,277.414886 761.581848,284.802399 
	C761.735352,286.023743 760.622131,287.437500 760.000000,288.716492 
	C758.387817,292.031128 755.849121,295.171997 755.259033,298.650085 
	C753.982300,306.175079 753.693176,313.867676 752.977783,321.950226 
z"/>
<path fill="#FDFDFD" opacity="1.000000" stroke="none" 
	d="
M892.626831,354.573181 
	C888.827637,361.598755 885.699768,368.625519 881.354492,374.794922 
	C879.041931,378.078278 874.921082,380.597748 871.087891,382.187988 
	C864.339600,384.987579 859.344666,383.135254 857.061890,376.270416 
	C854.422791,368.334320 852.422852,359.958344 851.737854,351.642181 
	C849.649719,326.292786 850.544250,301.094513 858.926941,276.692383 
	C861.920471,267.978180 865.770447,259.694427 872.453430,253.142166 
	C874.671936,250.967087 877.290466,248.990707 880.073853,247.640121 
	C888.611572,243.497299 897.165710,245.834595 901.367310,254.273178 
	C907.742310,267.076904 909.471252,280.379303 903.612610,294.169434 
	C901.908447,298.180603 901.279358,302.847473 901.066589,307.257629 
	C900.293396,323.283020 898.132080,339.018127 892.626831,354.573181 
z"/>
<path fill="#FDFDFD" opacity="1.000000" stroke="none" 
	d="
M900.926392,422.765472 
	C902.353271,421.675232 903.499939,420.830048 905.299316,419.503784 
	C905.299316,427.655670 905.411316,434.929871 905.277527,442.199524 
	C904.928345,461.169830 904.881348,480.159027 903.915161,499.099976 
	C903.259033,511.964447 899.983582,524.347229 892.653076,535.321045 
	C888.528442,541.495605 883.081726,545.015198 875.451538,543.950378 
	C868.412903,542.968201 865.080505,537.878967 863.024536,531.776184 
	C858.881653,519.478455 860.388184,507.089966 863.085083,494.828552 
	C867.663513,474.013123 875.752258,454.617340 888.143372,437.216583 
	C891.783142,432.105347 896.450073,427.725555 900.926392,422.765472 
z"/>
<path fill="#FDFDFD" opacity="1.000000" stroke="none" 
	d="
M1142.006226,338.965759 
	C1139.767090,352.355103 1137.675293,365.329254 1130.514526,376.766266 
	C1126.777222,382.735229 1121.751709,386.581207 1114.546143,387.392761 
	C1108.717773,388.049225 1105.306030,386.889862 1103.363770,381.489716 
	C1100.908447,374.663574 1098.597778,367.588287 1097.696411,360.434998 
	C1094.205200,332.731903 1095.531250,305.214325 1104.291138,278.542084 
	C1106.781250,270.960571 1111.157349,263.813263 1115.650757,257.126892 
	C1120.188843,250.373856 1127.503540,248.071121 1135.477417,249.314301 
	C1143.594971,250.579849 1147.708130,256.669525 1149.569702,263.825653 
	C1151.311523,270.521118 1151.825317,277.555389 1152.572998,284.473663 
	C1152.721069,285.843903 1151.515503,287.382568 1150.865845,288.812500 
	C1149.275024,292.313477 1146.694946,295.667511 1146.200684,299.309692 
	C1144.433960,312.329437 1143.369263,325.444458 1142.006226,338.965759 
z"/>
<path fill="#FFFFFF" opacity="1.000000" stroke="none" 
	d="
M491.943939,362.951202 
	C491.823212,363.315521 491.545593,363.526672 491.267975,363.737823 
	C491.219025,363.480438 491.170074,363.223022 491.287109,362.739716 
	C491.453125,362.513794 491.787048,362.798035 491.943939,362.951202 
z"/>
<path fill="#FDFDFD" opacity="1.000000" stroke="none" 
	d="
M219.966568,423.934387 
	C219.265427,440.387207 218.482574,456.366028 212.955170,471.572510 
	C211.447449,475.720398 209.313293,479.801849 206.708511,483.358582 
	C199.635773,493.016266 187.021210,492.515594 181.299362,482.007721 
	C178.786743,477.393433 177.427460,471.669739 177.200226,466.378723 
	C176.377609,447.223724 181.642883,429.172424 189.284683,411.875977 
	C196.159241,396.316071 204.687469,381.678558 217.058853,369.656738 
	C217.745346,368.989685 218.493652,368.386169 219.973373,367.084198 
	C219.973373,386.421600 219.973373,404.933044 219.966568,423.934387 
z"/>
</svg>